<svg xmlns="http://www.w3.org/2000/svg" viewBox="0 0 902 206"><defs><style>.cls-1{fill:#ffb238;}.cls-2{fill:#ff773d;}</style></defs><path class="cls-1" d="m40.93,133.23c.31-11.28-.08-31.97.35-42.73,1.44-5.22-1.79-15.75,3.49-17.23,0,0,7.22.12,7.22.12,1.41.09,11.57-.12,12.75.17,5.53.31,9.95-1.09,9.26,7.28,19.9-17.9,44.95,1.48,42.73,27.25,1.32,24.69-24.41,47.45-45.17,29.22v16.77h-.12c.07,3.14.15,9.45.12,12.58-2.79,4.65-14.89.42-20.26,1.4l-.47.47c-2.35-.77-9.82.91-10.01-2.5-.03-11.84.1-22.86.12-32.78Zm38.54-10.83c4.44-1.82,3.98-16.7,3.38-21.42-.39-4.2-2.17-8.58-6.4-8.73-3.37,2.22-2.96,8.85-3.73,13.68.39,5.63-2.71,20.28,6.75,16.48Z"/><path class="cls-1" d="m158.3,144.64c-11.71-.4-27.3-2.64-32.46-13.54-13.41-28.33,2.08-65.82,35.72-58.54,35.55-2.28,42.97,56.19,14.44,69.86-3.88.02-9.22,3.71-13.04,2.21-1.36-.49-3.26.24-4.66,0Zm-.23-13.86c.57.04,1.9-.19,2.33-.23.45-1.17,2.43-4.67,2.33-5.94l.82-1.4c-.2-3.42,1.18-4.74,1.51-8.62-.03-1.02.04-3.06.12-4.07,0,0-2.1-15.83-2.1-15.83-.55-4.91-2.02-5.92-4.89-6.52-10.81-6.28-7.69,38.66-2.1,41.33,0,.86.66,1.28,1.98,1.28Z"/><path class="cls-1" d="m211.39,142.89c-3.98-.73-8.16-1.97-11.99-2.91-.2-.23-.97-.74-1.16-.93.19-1.54-3.75-15.77-1.63-16.3,5.59,1.9,18.37,5.6,21.77,0,.3-3.97-7.08-7.86-11.29-10.48-10.09-6.27-10.09-14.35-10.48-18.16.37-18.5,22.08-21.39,38.07-21.66,15.05-.9,15.88-.79,15.95,14.79,1.31,2.96-10.62,3.02-12.81,3.26-2.26-.15-5.59,2.26-5.59,4.72.68,2.93,4.46,3,7.1,4.72,25.87,11.81,13.23,41.46-11.99,42.73,0,0-15.95.23-15.95.23Z"/><path class="cls-1" d="m308.5,140.91c-15.87.04-34.46,0-49.6-.35-1,.07-2.63-1.41-2.56-2.44,0,0,0-18.51,0-18.51,6.89-7.65,17.69-15.65,22.47-24.45,0-.39-.16-.58-.47-.58-19.56-1.3-26.15,6.66-23.4-19.56.48-1.33,2.64-1.72,3.73-1.16,5.36.38,11.31-.6,16.53-.47,12.55.52,29.12-2.21,40.98,1.05.11.35.21.54.23.81,0,0,0,16.18,0,16.18-3.44,11.87-12.77,18.67-22.12,28.99,2.01.74,21.8-1.93,21.54,1.98,0,0,0,16.3,0,16.3-.68,2.68-4.33,1.84-7.33,2.21Z"/><path class="cls-1" d="m375.28,119.37c3.37,4.35,3.23,9.79,3.73,17.12-11.99,11.86-36.59,9.07-48.2-1.05-13.6-12.46-15.46-41.94,0-54.37,12.15-11.14,28.71-9.98,43.43-6.05.47.37.69,1.22,1.4,1.05-.1,5.28,2.84,13.75-1.4,17.47-3.22-.42-9.29-1.38-12.46-1.16l-.12.12c-11.44-.56-15.92,44.75,13.62,26.9Z"/><path class="cls-1" d="m434.78,140.91c-15.87.04-34.46,0-49.6-.35-1,.07-2.63-1.41-2.56-2.44,0,0,0-18.51,0-18.51,6.89-7.65,17.69-15.65,22.47-24.45,0-.39-.16-.58-.47-.58-19.56-1.3-26.15,6.66-23.4-19.56.48-1.33,2.64-1.72,3.73-1.16,5.36.38,11.31-.6,16.53-.47,12.55.52,29.12-2.21,40.98,1.05.11.35.21.54.23.81,0,0,0,16.18,0,16.18-3.44,11.87-12.77,18.67-22.12,28.99,2.01.74,21.8-1.93,21.54,1.98,0,0,0,16.3,0,16.3-.68,2.68-4.33,1.84-7.33,2.21Z"/><path class="cls-1" d="m481.77,71.75c4.86.42,11,.68,16.65,3.49,9.31,6.94,15.56,22.02,12.57,33.77-1.71.04-33.99.6-34.58.7-.14,6.39,1.71,10.98,8.32,13.04,7.43,2.32,15.61-2.19,23.11-3.49l1.4,1.75,2.1,14.79-1.28,2.1c-41.4,21.41-78.26-10-58.45-53.27.49-.18-.26.14,0,0,6.55-11.02,16.2-13.26,30.16-12.87Zm0,14.09c-3.38-.12-5.77,9.11-3.49,10.71,0,0,7.69-.12,7.69-.12-.84-3.29.46-10.35-4.19-10.6Z"/><path class="cls-1" d="m593.55,128.22c3.09,3.72-2.27,5.9-4.6,7.33-1.79,1.52-6.01,4.01-8.09,4.66-9.18,8.31-7.96,3.73-14.79-2.91-1.99-2.49-9.7-12.73-11.76-14.9-.3-.31-2.46-4.58-3.14-4.31l-3.26,3.26c-.25,4.56-.27,11.68-.7,16.07-.15.76.44,4.01-.58,4.19-5.36.76-16.68.31-22.36.23-.18.08-4.45-.44-4.77-.47-1.82-28.32-1.2-56.21-1.28-85.23-.86-3.55-.18-6.26,4.08-5.94,1.08.75,27.42-1.79,26.31,1.63.41,1.07-.3,2.93.52,4.07,3.57,11.27-.4,24.47.06,37.14.98-1.17,2.21-2.8,3.38-4.08,7.23-5.19,15.19-13.36,21.77-18.75,3.35-1.2,6.79,3.82,8.44,5.88,11.52,12.65,10.48,6.72-6,22.76,0,1.6-3.45,1.72-3.38,3.61,7.07,7.67,14.02,17.02,20.14,25.73Zm-40.75-39.59c.36-.38-.34.35-.23.35-.08,0,0-.12.23-.35Z"/><path class="cls-1" d="m614.74,144.17c-19.79,3-29.3-20.79-17.23-34.58,7.48-10.03,22.28-7.73,33.42-8.03-.26-10.29-17.23-6.06-24.22-6.75,0,0-6.87.82-6.87.82-3.06-2.07-1.34-13.83-1.63-18.63,12.17-5.13,27.81-4.26,40.69-3.14,25.53,1.24,21.42,29.72,22.29,48.03.3,3.91.21,6.67-.4,10.01-.71,3.19,1.66,9.38-2.39,9.96,0,0-18.86.58-18.86.58-3.66-.34-11.86,1.01-10.01-6.17v-.35c-.16-.16-.27-.23-.35-.23-2.9,4.65-9.02,8.24-14.44,8.5Zm8.85-18.63c7.57.93,9.71-12.98,2.21-14.09-5.42.28-5.56,6.58-4.66,10.6.62,2.33,1.43,3.49,2.44,3.49Z"/><path class="cls-1" d="m733.45,142.54c-21.75-.1-22.36,1.42-21.19-20.26-.16-5.42.45-12.06.11-17.52-.69-4.53,1.67-10.86-1.4-13.8-2.23-2.51-8.61.33-8.03,4.08-.02-.26.11-.37.12-.58v1.86h-.12v43.9c-.18.38.03,1.14-.81,1.05-9.36,1.01-20.85,1.77-29.81-.7-3.57-16.25-2.33-33.58-2.91-50.77.04-2.41.19-7.37.35-9.78.21-1.22.13-4.02.35-5.24.29-.74,1.56-.21,2.21-.93,1.13-.07,19.34.04,21.08,0,6.43.05,10.03-.56,9.66,7.34,7.61-8.79,25.97-10.85,33.88-3.14,9.66,11.99,5.33,29.99,5.71,44.94-.79,5.78-.69,12.18-.35,18.16,0,2.32-7.19,1.11-8.85,1.4Z"/><path class="cls-1" d="m774.35,72.3c4.8-.87,10.79-2.23,16.98-1.01,10.81,4.26,20.8,17.15,21,29.28-1.64.49-32.64,9.51-33.18,9.76,1.55,6.2,4.54,10.15,11.46,10.4,7.78.29,14.49-6.21,21.38-9.44l1.81,1.32,5.91,13.72-.69,2.36c-34.32,31.54-78.14,10.91-70.39-36.04.43-.3-.22.2,0,0,3.42-12.35,12.15-17.06,25.72-20.34Zm3.7,13.59c-3.29.77-3.17,10.3-.56,11.25,0,0,7.39-2.13,7.39-2.13-1.68-2.95-2.27-10.11-6.83-9.12Z"/><path class="cls-2" d="m838.27,56.8l.36.66.39-.07c.6.91,8.98,3.98,8.31,5.5-3.9,6.56-16.27,19.7-21.8,24.81-.73.42-3.23-.96-3.82-1.2-.22-.21-4.04-2.43-4.63-3.12-.58-.34,13.31-26.8,16.61-28.28,2.18-1.25,3.24.93,4.59,1.7Z"/><path class="cls-2" d="m874.34,82.53c-.1,1.22,4.56,8.69,2.74,9.68-8.81,3.67-30.29,8.61-39.6,9.92-1.03-.07-1.7-3.67-2.09-4.26-.05-.33-2.27-3.82-2.32-4.83-.32-.68,32.97-17.28,37.33-16.6,3.09.19,3.95,6.09,3.95,6.09Z"/><path class="cls-2" d="m867.17,124.35l-.48.53.21.32c-.62.82.3,5.09-1.35,4.97-7.5-1.38-25.23-9.06-32-12.34-.65-.51,1.88-6.29,2.31-7.02.1-.62,29.76,2.9,32.34,5.36,1.96,1.53-.82,6.75-1.03,8.19Z"/></svg>